#!OML:ASF H:\Terrain\Walking\May29\JustinRory\rory.ASF
:FULLY-SPECIFIED
:DEGREES
1345
root 6.64875 18.6975 9.27163 -178.164 1.34701 -180.886
lowerback 4.84331 0.458032 -3.95947
upperback 1.16444 0.471515 0.577408
thorax -1.55194 0.269244 2.78782
lowerneck -9.76639 -3.24375 -3.93678
upperneck 10.4988 -4.1948 3.88219
head 4.91883 -1.93559 1.54642
rclavicle -2.33572e-015 6.31141e-015
rhumerus -13.0935 29.419 -97.108
rradius 116.331
rwrist -5.6691
rhand -27.567 82.6283
rfingers 7.12502
rthumb -0.967756 -307.349
lclavicle -2.33572e-015 6.31141e-015
lhumerus -13.4448 -37.6982 104.3
lradius 115.335
lwrist 27.5105
lhand -30.6995 15.1662
lfingers 7.12502
lthumb -3.99292 45.1085
rfemur -8.44646 7.85821 16.2405
rtibia 22.7521
rfoot -8.69935 -16.9531
rtoes 9.51652
lfemur -7.13002 -0.699286 -17.6002
ltibia 22.6311
lfoot -14.9254 7.18053
ltoes -10.5121
1346
root 6.64755 18.6778 9.28744 -178.291 1.26701 -180.63
lowerback 4.89168 0.284717 -3.63666
upperback 1.34671 0.267919 0.724681
thorax -1.37481 0.163775 2.77084
lowerneck -10.0939 -3.09761 -4.07445
upperneck 10.5687 -3.94754 3.66633
head 4.9837 -1.83345 1.51537
rclavicle -1.25483e-015 -5.86415e-015
rhumerus -12.6426 31.9799 -97.6747
rradius 115.232
rwrist -5.30202
rhand -36.9238 74.5366
rfingers 7.12502
rthumb -10.0011 -315.206
lclavicle -1.25483e-015 -5.86415e-015
lhumerus -13.4412 -39.0063 104.981
lradius 114.652
lwrist 26.985
lhand -30.8754 16.152
lfingers 7.12502
lthumb -4.1628 46.0911
rfemur -8.64545 7.48379 16.523
rtibia 23.2567
rfoot -8.8946 -16.6542
rtoes 9.70462
lfemur -7.37556 -0.636088 -17.3204
ltibia 23.1522
lfoot -14.7849 7.21471
ltoes -12.4753
1347
root 6.648 18.6576 9.30279 -178.426 1.26065 -180.493
lowerback 4.99844 0.17625 -3.40013
upperback 1.43168 0.13804 0.761797
thorax -1.33697 0.0987087 2.68377
lowerneck -10.2731 -2.97064 -4.00466
upperneck 10.5952 -3.74933 3.38025
head 5.00714 -1.75241 1.42767
rclavicle -1.36664e-016 -6.95746e-016
rhumerus -12.4752 33.9091 -98.3719
rradius 114.41
rwrist -5.23896
rhand -46.2661 61.8975
rfingers 7.12502
rthumb -19.0016 -327.194
lclavicle -1.36664e-016 -6.95746e-016
lhumerus -13.6531 -40.0239 105.559
lradius 114.103
lwrist 26.4995
lhand -34.9049 14.5246
lfingers 7.12502
lthumb -8.05294 44.3512
rfemur -8.73298 7.3662 16.6854
rtibia 23.6378
rfoot -9.14232 -16.5053
rtoes 9.27732
lfemur -7.52212 -0.716099 -17.1465
ltibia 23.601
lfoot -14.9223 7.20275
ltoes -13.9632
1348
root 6.65188 18.6455 9.31764 -178.504 1.49355 -180.536
lowerback 5.10852 0.242171 -3.42548
upperback 1.46381 0.223077 0.725449
thorax -1.37132 0.142498 2.6552
lowerneck -10.341 -2.92441 -3.93455
upperneck 10.4198 -3.68399 3.26902
head 4.95824 -1.72733 1.38625
rclavicle -2.6339e-015 -5.76476e-015
rhumerus -12.562 34.5048 -99.0468
rradius 114.131
rwrist -5.73255
rhand -50.1348 50.6339
rfingers 7.12502
rthumb -22.7184 -338.049
lclavicle -2.6339e-015 -5.76476e-015
lhumerus -13.4507 -40.6027 105.731
lradius 114.217
lwrist 27.5503
lhand -34.9949 13.7433
lfingers 7.12502
lthumb -8.13988 43.5665
rfemur -8.87325 7.54445 16.6253
rtibia 23.8846
rfoot -9.29056 -16.4293
rtoes 9.06128
lfemur -7.64597 -0.81845 -17.1673
ltibia 23.9823
lfoot -15.2057 7.24062
ltoes -13.1989
1349
root 6.65922 18.6471 9.32888 -178.511 1.61852 -180.508
lowerback 5.09375 0.296302 -3.50045
upperback 1.52969 0.296788 0.784359
thorax -1.30096 0.178388 2.75372
lowerneck -10.3859 -2.93298 -4.03253
upperneck 10.1706 -3.68204 3.27774
head 4.89051 -1.7329 1.40501
rclavicle 3.66509e-015 9.34288e-015
rhumerus -12.963 34.6637 -99.7981
rradius 115.345
rwrist -4.81503
rhand -49.989 33.9524
rfingers 7.12502
rthumb -22.5786 -354.747
lclavicle 3.66509e-015 9.34288e-015
lhumerus -13.3122 -40.067 106.075
lradius 114.625
lwrist 29.3528
lhand -31.1035 13.5398
lfingers 7.12502
lthumb -4.38306 43.4745
rfemur -9.06673 7.58717 16.6706
rtibia 24.0091
rfoot -9.16399 -16.3974
rtoes 9.63056
lfemur -7.81864 -0.966568 -17.083
ltibia 24.2618
lfoot -15.4438 7.17361
ltoes -11.0314
1350
root 6.66552 18.6505 9.33424 -178.536 1.65636 -180.45
lowerback 5.05635 0.280022 -3.50743
upperback 1.61649 0.282246 0.846882
thorax -1.18984 0.169393 2.82329
lowerneck -10.3565 -2.92684 -4.20641
upperneck 9.82276 -3.65885 3.36131
head 4.78199 -1.72704 1.46211
rclavicle -2.68359e-015 -8.24956e-015
rhumerus -13.2657 34.064 -100.439
rradius 115.894
rwrist -3.64105
rhand -47.8387 32.7617
rfingers 7.12502
rthumb -20.5134 -356.175
lclavicle -2.68359e-015 -8.24956e-015
lhumerus -13.7253 -38.7743 106.672
lradius 114.896
lwrist 29.5031
lhand -25.3414 13.1208
lfingers 7.12502
lthumb 1.18183 43.0972
rfemur -9.13159 7.45272 16.7739
rtibia 24.0493
rfoot -8.94834 -16.3105
rtoes 9.33974
lfemur -7.89951 -0.992936 -16.9894
ltibia 24.3933
lfoot -15.4697 7.21204
ltoes -10.5593
1351
root 6.66881 18.6515 9.33762 -178.588 1.69346 -180.486
lowerback 5.09914 0.272367 -3.50606
upperback 1.63112 0.271374 0.809943
thorax -1.19765 0.164428 2.78497
lowerneck -10.2869 -2.9125 -4.17814
upperneck 9.54055 -3.64204 3.33041
head 4.68153 -1.72284 1.45092
rclavicle 2.48481e-015 -6.16232e-015
rhumerus -13.7294 33.3416 -101.035
rradius 115.975
rwrist -2.31552
rhand -34.7204 49.157
rfingers 7.12502
rthumb -7.87493 -340.676
lclavicle 2.48481e-015 -6.16232e-015
lhumerus -14.4242 -37.7868 107.18
lradius 115.199
lwrist 28.5962
lhand -20.3732 12.7855
lfingers 7.12502
lthumb 5.97948 42.6811
rfemur -9.07404 7.29162 16.7551
rtibia 24.0257
rfoot -8.72783 -16.1939
rtoes 8.65537
lfemur -7.85145 -0.965331 -17.0296
ltibia 24.4002
lfoot -15.3776 7.38112
ltoes -11.6184
1352
root 6.67612 18.6458 9.34084 -178.651 1.83858 -180.507
lowerback 5.14876 0.34426 -3.56713
upperback 1.61389 0.361051 0.776042
thorax -1.24981 0.210327 2.77867
lowerneck -10.3767 -2.86351 -3.8523
upperneck 9.48678 -3.58187 2.97182
head 4.66494 -1.70405 1.29077
rclavicle -3.6154e-015 -6.26172e-015
rhumerus -14.0929 32.7311 -101.385
rradius 115.83
rwrist -1.20188
rhand -35.2831 46.4415
rfingers 7.12502
rthumb -8.41801 -343.371
lclavicle -3.6154e-015 -6.26172e-015
lhumerus -15.1521 -37.3363 107.534
lradius 115.558
lwrist 28.4365
lhand -17.6873 12.7563
lfingers 7.12502
lthumb 8.57212 42.5623
rfemur -8.98278 7.48217 16.7581
rtibia 23.9612
rfoot -8.71933 -16.2208
rtoes 7.97261
lfemur -7.68818 -0.884442 -17.0318
ltibia 24.294
lfoot -15.4114 7.46819
ltoes -12.7694
1353
root 6.68805 18.6477 9.34185 -178.684 2.17245 -180.668
lowerback 5.21727 0.480075 -3.80141
upperback 1.5782 0.524192 0.68158
thorax -1.33778 0.293793 2.80232
lowerneck -10.5033 -2.81901 -3.63027
upperneck 9.44622 -3.52986 2.772
head 4.66395 -1.68284 1.1955
rclavicle 1.04362e-015 4.52235e-015
rhumerus -14.1275 32.2121 -101.583
rradius 115.705
rwrist -1.99396
rhand -33.2375 51.9189
rfingers 7.12502
rthumb -6.44346 -337.963
lclavicle 1.04362e-015 4.52235e-015
lhumerus -15.8679 -37.1902 107.803
lradius 115.789
lwrist 28.6672
lhand -16.8031 12.305
lfingers 7.12502
lthumb 9.42534 42.0743
rfemur -8.96768 7.95209 16.6045
rtibia 23.9059
rfoot -8.92129 -16.2716
rtoes 7.62326
lfemur -7.48665 -0.802724 -17.1651
ltibia 24.0282
lfoot -15.5307 7.61146
ltoes -12.8405
